<?xml version="1.0"?>
<svg xmlns="http://www.w3.org/2000/svg" xmlns:xlink="http://www.w3.org/1999/xlink" xmlns:svgjs="http://svgjs.com/svgjs" version="1.1" width="512" height="512" x="0" y="0" viewBox="0 0 512 512" style="enable-background:new 0 0 512 512" xml:space="preserve" class=""><g><g xmlns="http://www.w3.org/2000/svg" id="XMLID_1501_"><g id="XMLID_250_"><path id="XMLID_2583_" d="m439.021 373.192c4.631-16.588 6.979-33.812 6.979-51.192 0-87.397-59.32-161.188-139.808-183.258v-27.627c0-12.745-10.369-23.115-23.115-23.115h-17.077v-78c0-5.523-4.478-10-10-10-5.523 0-10 4.477-10 10v78h-17.077c-12.746 0-23.115 10.37-23.115 23.115v27.627c-80.488 22.07-139.808 95.861-139.808 183.258 0 104.766 85.234 190 190 190 51.579 0 99.842-20.319 135.897-57.214 3.859-3.95 3.787-10.281-.163-14.141-3.951-3.861-10.282-3.787-14.142.163-19.363 19.814-42.663 34.277-68.175 42.681 6.957-8.246 13.393-18.191 19.167-29.737 4.885-9.771 9.161-20.417 12.795-31.751h25.577c5.522 0 10-4.477 10-10s-4.478-10-10-10h-20.001c5.214-21.776 8.258-45.465 8.909-70h69.826c-.706 12.155-2.68 24.163-5.932 35.814-1.485 5.319 1.624 10.835 6.943 12.32 5.318 1.483 10.835-1.623 12.32-6.943zm-193.021 117.42c-21.926-6.113-41.396-31.972-54.201-68.611h54.201zm-60.245-88.612c-5.476-21.196-8.882-44.97-9.605-70h69.85v70zm-99.453-70h69.834c.651 24.535 3.695 48.224 8.909 70h-59.007c-11.294-21.086-18.267-44.815-19.736-70zm19.736-90h59.007c-5.214 21.776-8.258 45.465-8.909 70h-69.834c1.469-25.185 8.442-48.913 19.736-70zm70.112 70c.723-25.03 4.128-48.804 9.605-70h60.245v70zm89.85-158.611c21.926 6.113 41.396 31.972 54.201 68.611h-54.201zm-20 0v68.611h-54.201c12.805-36.639 32.275-62.498 54.201-68.611zm20 88.611h60.245c5.476 21.196 8.882 44.97 9.605 70h-69.85zm80.955 0h59.007c11.294 21.086 18.268 44.815 19.736 70h-69.834c-.652-24.535-3.695-48.224-8.909-70zm46.431-20h-52.007c-3.635-11.334-7.91-21.981-12.795-31.751-5.744-11.487-12.144-21.387-19.06-29.608 33.952 11.291 63.177 33.017 83.862 61.359zm-167.578-90v-20.885c0-1.718 1.397-3.115 3.115-3.115h54.154c1.718 0 3.115 1.397 3.115 3.115v20.885zm-23.332 28.641c-6.916 8.222-13.317 18.121-19.06 29.608-4.885 9.771-9.161 20.417-12.795 31.751h-52.007c20.685-28.342 49.91-50.068 83.862-61.359zm-83.862 261.359h52.007c3.635 11.334 7.91 21.981 12.795 31.751 5.744 11.487 12.144 21.387 19.06 29.608-33.952-11.29-63.177-33.017-83.862-61.359zm147.386 68.612v-68.612h54.201c-12.805 36.64-32.275 62.499-54.201 68.612zm60.245-88.612h-60.245v-70h69.85c-.722 25.03-4.128 48.804-9.605 70z" fill="#ffffff" data-original="#000000" style="" class=""/><path id="XMLID_2621_" d="m426.1 58.502c5.522 0 10-4.477 10-10v-13.334c0-5.523-4.478-10-10-10s-10 4.477-10 10v13.333c0 5.524 4.477 10.001 10 10.001z" fill="#ffffff" data-original="#000000" style="" class=""/><path id="XMLID_2622_" d="m426.1 125.168c5.522 0 10-4.477 10-10v-13.333c0-5.523-4.478-10-10-10s-10 4.477-10 10v13.333c0 5.523 4.477 10 10 10z" fill="#ffffff" data-original="#000000" style="" class=""/><path id="XMLID_2623_" d="m386.1 85.168h13.334c5.522 0 10-4.477 10-10s-4.478-10-10-10h-13.334c-5.522 0-10 4.477-10 10s4.477 10 10 10z" fill="#ffffff" data-original="#000000" style="" class=""/><path id="XMLID_2624_" d="m452.767 85.168h13.333c5.522 0 10-4.477 10-10s-4.478-10-10-10h-13.333c-5.522 0-10 4.477-10 10s4.477 10 10 10z" fill="#ffffff" data-original="#000000" style="" class=""/><path id="XMLID_2625_" d="m50 114.667c5.523 0 10-4.477 10-10v-13.333c0-5.523-4.477-10-10-10s-10 4.477-10 10v13.333c0 5.523 4.477 10 10 10z" fill="#ffffff" data-original="#000000" style="" class=""/><path id="XMLID_2626_" d="m50 181.334c5.523 0 10-4.477 10-10v-13.334c0-5.523-4.477-10-10-10s-10 4.477-10 10v13.333c0 5.524 4.477 10.001 10 10.001z" fill="#ffffff" data-original="#000000" style="" class=""/><path id="XMLID_2627_" d="m10 141.334h13.333c5.523 0 10-4.477 10-10s-4.477-10-10-10h-13.333c-5.523 0-10 4.477-10 10s4.477 10 10 10z" fill="#ffffff" data-original="#000000" style="" class=""/><path id="XMLID_2628_" d="m76.667 141.334h13.333c5.523 0 10-4.477 10-10s-4.477-10-10-10h-13.333c-5.523 0-10 4.477-10 10s4.477 10 10 10z" fill="#ffffff" data-original="#000000" style="" class=""/><path id="XMLID_2629_" d="m411.96 402c-2.641 0-5.21 1.07-7.08 2.93-1.86 1.86-2.92 4.44-2.92 7.07s1.06 5.21 2.92 7.07c1.87 1.86 4.439 2.93 7.08 2.93 2.63 0 5.21-1.07 7.07-2.93 1.859-1.86 2.93-4.44 2.93-7.07s-1.07-5.21-2.93-7.07c-1.87-1.86-4.44-2.93-7.07-2.93z" fill="#ffffff" data-original="#000000" style="" class=""/><path id="XMLID_2632_" d="m509.071 460.289-34.641-34.641c-1.876-1.875-4.419-2.929-7.071-2.929s-5.195 1.054-7.071 2.929l-34.641 34.641c-3.905 3.905-3.905 10.237 0 14.142l34.641 34.641c1.953 1.953 4.512 2.929 7.071 2.929s5.118-.976 7.071-2.929l34.641-34.641c3.906-3.905 3.906-10.237 0-14.142zm-41.712 27.569-20.498-20.499 20.498-20.499 20.498 20.499z" fill="#ffffff" data-original="#000000" style="" class=""/><path id="XMLID_2636_" d="m51.712 425.647c-1.875-1.875-4.419-2.929-7.071-2.929s-5.196 1.054-7.071 2.929l-34.641 34.642c-3.905 3.905-3.905 10.237 0 14.142l34.641 34.641c1.953 1.953 4.512 2.929 7.071 2.929s5.119-.977 7.071-2.929l34.641-34.641c1.875-1.875 2.929-4.419 2.929-7.071s-1.054-5.196-2.929-7.071zm-7.071 62.211-20.499-20.498 20.499-20.499 20.499 20.499z" fill="#ffffff" data-original="#000000" style="" class=""/><path id="XMLID_2639_" d="m120.929 86.353c1.875 1.875 4.419 2.929 7.071 2.929s5.196-1.054 7.071-2.929l34.641-34.641c3.905-3.905 3.905-10.237 0-14.142l-34.641-34.641c-3.905-3.905-10.237-3.905-14.143 0l-34.64 34.641c-3.905 3.905-3.905 10.237 0 14.142zm7.071-62.211 20.499 20.499-20.499 20.499-20.499-20.499z" fill="#ffffff" data-original="#000000" style="" class=""/></g></g></g></svg>
